<svg width="20" height="20" viewBox="0 0 20 20" fill="none" xmlns="http://www.w3.org/2000/svg">
<path fill-rule="evenodd" clip-rule="evenodd" d="M4.79183 1.66669C4.79183 1.32151 5.07165 1.04169 5.41683 1.04169H7.91683C8.26201 1.04169 8.54183 1.32151 8.54183 1.66669V3.54613C8.61091 3.54318 8.68036 3.54169 8.75016 3.54169H11.2502C11.32 3.54169 11.3894 3.54318 11.4585 3.54613V1.66669C11.4585 1.32151 11.7383 1.04169 12.0835 1.04169H14.5835C14.9287 1.04169 15.2085 1.32151 15.2085 1.66669V5.63224C15.7343 6.4013 16.0418 7.33142 16.0418 8.33335V11.4584H17.9168C18.262 11.4584 18.5418 11.7382 18.5418 12.0834V16.25C18.5418 16.5952 18.262 16.875 17.9168 16.875H16.0325C15.9272 18.043 14.9456 18.9584 13.7502 18.9584H6.25016C5.05475 18.9584 4.0731 18.043 3.96784 16.875H2.0835C1.73832 16.875 1.4585 16.5952 1.4585 16.25V12.0834C1.4585 11.7382 1.73832 11.4584 2.0835 11.4584H3.9585V8.33335C3.9585 7.33142 4.26602 6.4013 4.79183 5.63224V1.66669ZM5.9072 6.2209C5.91374 6.21264 5.92007 6.20421 5.92619 6.19562C6.5729 5.34264 7.5972 4.79169 8.75016 4.79169H11.2502C12.4031 4.79169 13.4274 5.34263 14.0741 6.19561C14.0803 6.20421 14.0866 6.21264 14.0931 6.2209C14.5321 6.81067 14.7918 7.54168 14.7918 8.33335V16.6667C14.7918 17.242 14.3254 17.7084 13.7502 17.7084H6.25016C5.67488 17.7084 5.2085 17.242 5.2085 16.6667V8.33335C5.2085 7.54168 5.46826 6.81066 5.9072 6.2209ZM3.9585 12.7084H2.7085V15.625H3.9585V12.7084ZM16.0418 15.625H17.2918V12.7084H16.0418V15.625ZM13.9585 4.37997V2.29169H12.7085V3.76765C13.1576 3.91096 13.5778 4.11869 13.9585 4.37997ZM6.04183 4.37997V2.29169H7.29183V3.76765C6.84277 3.91096 6.42249 4.11869 6.04183 4.37997ZM6.4585 9.58335C6.4585 9.23817 6.73832 8.95835 7.0835 8.95835H12.9168C13.262 8.95835 13.5418 9.23817 13.5418 9.58335C13.5418 9.92853 13.262 10.2084 12.9168 10.2084H12.2918V11.25C12.2918 11.5952 12.012 11.875 11.6668 11.875C11.3217 11.875 11.0418 11.5952 11.0418 11.25V10.2084H7.0835C6.73832 10.2084 6.4585 9.92853 6.4585 9.58335Z" fill="#FCFCFC"/>
</svg>
