<svg width="20" height="20" viewBox="0 0 20 20" fill="none" xmlns="http://www.w3.org/2000/svg">
<path d="M10 18.3333C13.4311 18.3333 16.2499 15.6142 16.2499 12.1242C16.2499 11.2674 16.2064 10.3489 15.7315 8.92149C15.2565 7.49407 15.1609 7.30982 14.6587 6.42828C14.4442 8.22724 13.2962 8.97699 13.0046 9.20107C13.0046 8.96795 12.3102 6.38995 11.2573 4.84745C10.2237 3.33332 8.81808 2.33996 7.99388 1.66666C7.99388 2.94573 7.63412 4.84745 7.11892 5.81641C6.60371 6.78536 6.50696 6.82066 5.86342 7.54174C5.21992 8.26282 4.92454 8.48553 4.38642 9.36045C3.84832 10.2354 3.75 11.4007 3.75 12.2575C3.75 15.7476 6.56888 18.3333 10 18.3333Z" fill="url(#paint0_linear_694_2839)"/>
<path fill-rule="evenodd" clip-rule="evenodd" d="M15.7315 8.92149C15.407 7.94616 15.2595 7.55124 15.0385 7.11769C14.936 6.91674 14.8178 6.70748 14.6587 6.42828C14.6263 6.7004 14.5724 6.9485 14.5035 7.17442C14.2528 7.99549 13.8019 8.5234 13.448 8.84512C13.2945 8.98468 13.1593 9.08545 13.0666 9.15451C13.043 9.17203 13.0223 9.18752 13.0046 9.20107C13.0046 9.14439 12.9636 8.94908 12.8863 8.66372C12.6457 7.7755 12.0542 6.01489 11.2573 4.84745C10.4079 3.60306 9.3071 2.71041 8.48433 2.0581C8.45303 2.03328 8.42212 2.00881 8.39166 1.98468C8.24853 1.87135 8.11493 1.76555 7.99388 1.66666C7.99388 1.86133 7.98554 2.07043 7.96959 2.28847C7.88077 3.50301 7.55571 4.99492 7.11892 5.81641C6.68128 6.63947 6.54558 6.78886 6.12021 7.25714C6.04481 7.34014 5.96031 7.43317 5.86342 7.54174C5.70813 7.71575 5.57311 7.86074 5.45006 7.99288C5.06322 8.40829 4.79468 8.69667 4.38642 9.36045C3.84832 10.2354 3.75 11.4007 3.75 12.2575C3.75 15.7476 6.56888 18.3333 10 18.3333C13.4311 18.3333 16.2499 15.6142 16.2499 12.1242C16.2499 11.2674 16.2064 10.3489 15.7315 8.92149ZM6.23646 7.87467C6.06877 8.06257 5.92766 8.21417 5.80239 8.34875C5.42622 8.75288 5.19301 9.00343 4.81231 9.6224C4.35173 10.3713 4.25 11.4148 4.25 12.2575C4.25 15.45 6.82311 17.8333 10 17.8333C13.1624 17.8333 15.7499 15.3308 15.7499 12.1242C15.7499 11.3028 15.7101 10.4411 15.257 9.07933C15.0517 8.46205 14.922 8.09236 14.803 7.80253C14.3563 8.81787 13.6503 9.34329 13.3707 9.55142C13.347 9.56903 13.3264 9.58437 13.3093 9.59754C13.1583 9.71358 12.9545 9.73375 12.7836 9.64958C12.6128 9.56541 12.5046 9.39151 12.5046 9.20107C12.5046 9.21241 12.505 9.21895 12.5047 9.21899C12.504 9.21905 12.5004 9.19052 12.4844 9.1176C12.4656 9.03225 12.4366 8.91489 12.3973 8.77113C12.319 8.48416 12.2028 8.10332 12.0542 7.6814C11.7541 6.82937 11.3344 5.84719 10.8444 5.12934C10.1214 4.07024 9.2105 3.28271 8.43855 2.66179C8.39495 3.08644 8.32694 3.52924 8.23951 3.95778C8.0813 4.73316 7.85088 5.50482 7.56039 6.05114C7.29928 6.54221 7.13074 6.82282 6.93583 7.07659C6.80443 7.24767 6.65833 7.40852 6.47526 7.61007C6.40205 7.69067 6.32293 7.77778 6.23647 7.87465" fill="url(#paint1_linear_694_2839)" style="mix-blend-mode:soft-light"/>
<defs>
<linearGradient id="paint0_linear_694_2839" x1="8.52709" y1="1.81865" x2="15.5463" y2="11.3977" gradientUnits="userSpaceOnUse">
<stop stop-color="#027AFF"/>
<stop offset="1" stop-color="#02F0FF"/>
</linearGradient>
<linearGradient id="paint1_linear_694_2839" x1="16.0697" y1="10.2027" x2="4.00154" y2="10.2027" gradientUnits="userSpaceOnUse">
<stop stop-color="white"/>
<stop offset="1" stop-color="white" stop-opacity="0"/>
</linearGradient>
</defs>
</svg>
