<svg width="20" height="20" viewBox="0 0 20 20" fill="none" xmlns="http://www.w3.org/2000/svg">
<path d="M13.3333 18.3333C13.3333 18.3333 13.3333 16.7231 13.334 16.7201C13.6245 16.5757 13.9043 16.413 14.1718 16.2336C14.579 15.9605 14.9579 15.6487 15.3033 15.3033C16.6605 13.9461 17.5 12.0711 17.5 10H2.5C2.5 12.0711 3.33947 13.9461 4.69671 15.3033C5.04525 15.6519 5.42796 15.9662 5.83937 16.2411C6.10542 16.4188 6.3835 16.58 6.67212 16.7231L6.66667 18.3333H13.3333Z" stroke="#5B646F" stroke-width="1.25" stroke-linecap="round" stroke-linejoin="round"/>
<path d="M10 7.50344V3.33331" stroke="#5B646F" stroke-width="1.25" stroke-linecap="round" stroke-linejoin="round"/>
<path d="M15 7.50346V5" stroke="#5B646F" stroke-width="1.25" stroke-linecap="round" stroke-linejoin="round"/>
<path d="M5 7.50346V5" stroke="#5B646F" stroke-width="1.25" stroke-linecap="round" stroke-linejoin="round"/>
<path d="M16.6667 3.33331C15.7462 3.33331 15 4.0795 15 4.99998" stroke="#5B646F" stroke-width="1.25" stroke-linecap="round" stroke-linejoin="round"/>
<path d="M11.6667 1.66669C10.7462 1.66669 10 2.41288 10 3.33335" stroke="#5B646F" stroke-width="1.25" stroke-linecap="round" stroke-linejoin="round"/>
<path d="M6.66667 3.33331C5.74621 3.33331 5 4.0795 5 4.99998" stroke="#5B646F" stroke-width="1.25" stroke-linecap="round" stroke-linejoin="round"/>
</svg>
