<svg width="96" height="30" viewBox="0 0 96 30" fill="none" xmlns="http://www.w3.org/2000/svg">
<path d="M14.3681 29.432H21.6321V25.528H18.5921V15.512H20.3521C21.0561 20.504 22.7201 24.92 25.6641 29.432H30.7841C27.5521 25.112 25.3761 20.568 24.5761 15.512H30.2401V11.608H18.5921V0.823997H14.3681V11.608H12.1281V15.512H14.3681V29.432ZM1.66406 19.64H7.36006L6.91206 25.592H2.59206V29.432H10.6561L11.5521 15.992H5.72806L5.92006 12.344H11.2321V1.496H1.66406V5.24H7.32806V8.696H2.30406L1.66406 19.64ZM19.4561 9.816L28.6721 5.752V1.496L19.4561 5.56V9.816Z" fill="#1F2833"/>
<path d="M62.3361 29.912V25.656C60.6081 25.048 59.0721 24.248 57.7921 23.288C59.8081 20.6 61.1521 17.272 61.6641 13.24H48.2881C48.8001 17.272 50.1441 20.6 52.1601 23.288C50.8801 24.248 49.3441 25.048 47.6161 25.656V29.912C50.4641 29.112 52.9281 27.864 54.9761 26.2C57.0241 27.864 59.4881 29.112 62.3361 29.912ZM33.3761 11.672H38.9121L39.0081 11.96C37.2161 12.728 35.4241 13.304 33.5361 13.752V17.624C35.7761 17.112 37.8881 16.472 39.8081 15.608C39.9041 16.152 40.0001 16.664 40.0641 17.208C37.9841 18.2 35.8081 18.968 33.5361 19.48V23.352C36.0641 22.776 38.4001 22.04 40.4801 21.048C40.5441 21.656 40.5761 22.264 40.6081 22.872C38.3681 23.896 36.0001 24.664 33.5361 25.208V28.92C36.1281 28.376 38.5601 27.64 40.7041 26.712C40.7361 27.64 40.7361 28.568 40.7361 29.528H44.5761C44.5761 27.288 44.5441 25.336 44.5121 23.544L47.9361 24.92V20.952L44.2881 19.48C44.2561 19.384 44.2561 19.288 44.2561 19.192H46.6561L47.9361 13.24H45.1841L44.1601 18.072C43.9041 15.8 43.5201 13.752 42.9761 11.672H47.3921V8.216H45.0241L45.6961 5.624H47.1361V2.168H42.6241V0.727999H38.4961V2.168H33.9521V5.624H35.1041L35.7761 8.216H33.3761V11.672ZM38.6241 5.624H42.1761L41.5041 8.216H39.2961L38.6241 5.624ZM47.1681 12.6H51.8081C52.8961 10.232 53.4081 7.96 53.5681 5.368H56.4481V12.12H62.3361V8.28H60.4161V1.272H49.6321V3.864C49.6321 7.192 49.0561 9.72 47.1681 12.6ZM53.0561 16.792H56.8961C56.3841 18.104 55.7761 19.32 54.9761 20.408C54.1761 19.32 53.5681 18.104 53.0561 16.792Z" fill="#1F2833"/>
<path d="M68.1921 16.92V29.08H91.6801V16.92H68.1921ZM65.5361 7.32H77.8241V10.36H67.1361V14.456H92.7361V10.36H82.0481V7.32H94.3361V3.224H82.0481V0.0879974H77.8241V3.224H65.5361V7.32ZM72.3521 25.144V20.856H87.5201V25.144H72.3521Z" fill="#1F2833"/>
</svg>
