<svg width="434" height="158" viewBox="0 0 434 158" fill="none" xmlns="http://www.w3.org/2000/svg">
<path d="M27.432 15.408L21.888 16.488C21.312 10.728 20.352 5.688 19.008 1.368L24.48 0.216003C25.152 2.424 25.728 4.8 26.208 7.344C26.688 9.888 27.096 12.576 27.432 15.408ZM24.984 62.208L30.528 61.056C30.768 62.64 31.224 63.792 31.896 64.512C32.616 65.28 33.432 65.664 34.344 65.664C35.64 65.664 36.6 65.232 37.224 64.368C37.896 63.504 38.328 62.208 38.52 60.48L38.736 58.536H23.904L26.64 40.968H23.04L23.688 35.424H27.432L29.808 20.016L26.856 17.928C28.872 15.144 30.456 12.36 31.608 9.576C32.76 6.744 33.744 3.696 34.56 0.432001L40.32 1.8C40.08 2.712 39.84 3.624 39.6 4.536C39.36 5.448 39.096 6.336 38.808 7.2H52.92L52.416 13.032H36.504C35.544 15 34.464 16.896 33.264 18.72H44.064C45.744 18.72 46.992 19.2 47.808 20.16C48.624 21.072 48.912 22.392 48.672 24.12L47.304 35.424H50.76L50.256 40.968H46.584L45.144 53.064H48.24L47.664 58.536H44.496L44.136 61.2C43.752 64.464 42.72 67.008 41.04 68.832C39.408 70.704 37.224 71.64 34.488 71.64C31.752 71.64 29.568 70.752 27.936 68.976C26.352 67.2 25.368 64.944 24.984 62.208ZM5.4 61.344H0L5.688 7.128H13.896C15.72 7.128 16.968 7.632 17.64 8.64C18.36 9.6 18.624 10.848 18.432 12.384L13.68 56.664H5.904L5.4 61.344ZM6.48 50.76H8.928L12.96 13.032H10.44L6.48 50.76ZM23.544 19.656C24.648 24.024 25.368 28.632 25.704 33.48L20.304 34.416C20.112 32.016 19.848 29.712 19.512 27.504C19.176 25.248 18.744 23.04 18.216 20.88L23.544 19.656ZM33.12 35.424H41.544L42.912 24.192H34.704L33.12 35.424ZM41.112 32.472L36.936 33.912C36.696 32.808 36.408 31.752 36.072 30.744C35.736 29.736 35.352 28.68 34.92 27.576L39.168 25.992C39.6 27.096 39.984 28.176 40.32 29.232C40.656 30.288 40.92 31.368 41.112 32.472ZM30.528 53.064H39.384L40.896 40.968H32.256L30.528 53.064ZM15.264 70.416L9.936 68.4C12.096 63.936 13.824 59.52 15.12 55.152C16.464 50.784 17.568 46.272 18.432 41.616L24.12 42.696C23.208 47.496 22.032 52.272 20.592 57.024C19.152 61.728 17.376 66.192 15.264 70.416ZM39.312 49.752L34.848 51.408C34.512 50.112 34.128 48.864 33.696 47.664C33.264 46.464 32.76 45.24 32.184 43.992L36.648 42.264C37.224 43.512 37.728 44.76 38.16 46.008C38.592 47.256 38.976 48.504 39.312 49.752Z" fill="#1F2833"/>
<path d="M64.3539 42.696C62.9619 42.696 61.8579 42.216 61.0419 41.256C60.2739 40.296 60.0099 38.952 60.2499 37.224C60.4899 35.544 61.1139 34.224 62.1219 33.264C63.1779 32.304 64.3779 31.824 65.7219 31.824C67.1139 31.824 68.1699 32.304 68.8899 33.264C69.6579 34.224 69.9219 35.544 69.6819 37.224C69.4419 38.952 68.8179 40.296 67.8099 41.256C66.8499 42.216 65.6979 42.696 64.3539 42.696Z" fill="url(#paint0_linear_675_2537)"/>
<path d="M78.5059 58.824L83.9779 57.96C84.0739 60.168 84.3859 61.728 84.9139 62.64C85.4899 63.552 86.2099 64.032 87.0739 64.08C87.8899 64.128 88.6099 63.744 89.2339 62.928C89.9059 62.112 90.3619 60.528 90.6019 58.176L91.8259 46.872C88.3699 48.168 84.8419 49.248 81.2419 50.112L79.8739 44.28C84.2899 43.272 88.4899 41.928 92.4739 40.248L93.8419 27.432H83.3299L83.9779 20.952H94.5619L95.4979 11.88C92.8099 12.696 90.0739 13.368 87.2899 13.896L85.6339 8.208C88.8499 7.536 92.0659 6.672 95.2819 5.616C98.5459 4.56 101.594 3.288 104.426 1.8L107.306 7.128C105.482 8.04 103.586 8.904 101.618 9.72L100.394 20.952H109.322C109.562 17.208 109.85 13.584 110.186 10.08C110.522 6.576 110.882 3.384 111.266 0.504H116.954C116.57 3.48 116.21 6.72 115.874 10.224C115.586 13.68 115.322 17.256 115.082 20.952H130.274L129.626 27.432H114.722C114.626 30.312 114.554 33.192 114.506 36.072C114.506 38.904 114.53 41.64 114.578 44.28C116.258 42.312 117.722 40.248 118.97 38.088C120.218 35.88 121.346 33.6 122.354 31.248L127.754 33.48C126.266 36.888 124.49 40.152 122.426 43.272C120.41 46.392 117.938 49.368 115.01 52.2C115.586 59.976 116.762 63.864 118.538 63.864C119.45 63.864 120.242 62.688 120.914 60.336C121.634 57.936 122.258 54.864 122.786 51.12L128.114 51.84C127.826 54.24 127.442 56.568 126.962 58.824C126.53 61.08 125.93 63.096 125.162 64.872C124.442 66.648 123.53 68.064 122.426 69.12C121.322 70.176 119.978 70.704 118.394 70.704C115.61 70.704 113.546 69.408 112.202 66.816C110.906 64.272 110.018 60.912 109.538 56.736C107.234 58.416 104.738 59.976 102.05 61.416L99.8899 55.8C101.618 54.888 103.226 53.952 104.714 52.992C106.25 51.984 107.666 50.952 108.962 49.896C108.914 49.56 108.89 49.2 108.89 48.816C108.746 45.552 108.674 42.096 108.674 38.448C108.722 34.8 108.818 31.128 108.962 27.432H99.7459L98.6659 37.368C100.202 36.6 101.714 35.76 103.202 34.848L105.866 40.104C103.322 41.64 100.682 43.032 97.9459 44.28L96.4339 58.896C96.1459 61.872 95.5219 64.176 94.5619 65.808C93.6019 67.488 92.4499 68.64 91.1059 69.264C89.8099 69.936 88.4179 70.248 86.9299 70.2C84.2899 70.104 82.2739 69.024 80.8819 66.96C79.4899 64.896 78.6979 62.184 78.5059 58.824ZM125.306 17.928C123.098 13.272 120.722 9.192 118.178 5.688L122.93 2.592C124.178 4.224 125.45 6.144 126.746 8.352C128.042 10.56 129.266 12.864 130.418 15.264L125.306 17.928Z" fill="#1F2833"/>
<path d="M184.836 8.208L182.532 29.376H147.9L150.708 2.808H179.796C181.716 2.808 183.084 3.336 183.9 4.392C184.716 5.4 185.028 6.672 184.836 8.208ZM155.676 13.248H178.068L178.572 8.568H156.108L155.676 13.248ZM154.596 23.616H176.988L177.492 18.504H155.1L154.596 23.616ZM154.164 42.336C153.684 45.168 152.988 48 152.076 50.832C154.092 54.432 156.684 57.384 159.852 59.688L161.94 39.528H141.06L141.708 33.264H187.86L187.212 39.528H168.348L167.556 46.872H182.604L181.956 52.848H166.908L165.828 62.856C167.796 63.528 169.764 63.888 171.732 63.936C174.132 63.984 176.268 63.792 178.14 63.36C180.06 62.928 181.98 62.112 183.9 60.912L186.06 66.384C184.572 67.248 183.132 67.944 181.74 68.472C180.396 69.048 178.884 69.456 177.204 69.696C175.572 69.936 173.58 70.056 171.228 70.056C166.86 70.056 162.756 68.976 158.916 66.816C155.076 64.704 151.86 61.704 149.268 57.816C148.164 60.12 146.892 62.328 145.452 64.44C144.012 66.552 142.428 68.472 140.7 70.2L136.236 66.168C138.156 64.344 139.932 62.064 141.564 59.328C143.244 56.592 144.66 53.64 145.812 50.472C147.012 47.304 147.876 44.184 148.404 41.112L154.164 42.336Z" fill="#1F2833"/>
<path d="M218.158 70.344L216.214 64.584C217.654 64.104 219.022 63.6 220.318 63.072L223.27 34.92H217.654L218.302 28.872H223.918L226.942 0.576003H232.774L229.822 28.872H247.75L247.102 34.92H237.814C237.526 42.408 238.15 48.576 239.686 53.424C241.27 58.224 243.502 62.28 246.382 65.592L242.062 70.416C239.422 67.632 237.382 64.392 235.942 60.696C234.502 56.952 233.494 52.92 232.918 48.6C232.39 44.232 232.15 39.672 232.198 34.92H229.174L226.51 60.192C228.286 59.28 229.966 58.32 231.55 57.312L234.142 62.712C229.006 65.88 223.678 68.424 218.158 70.344ZM233.494 22.392C235.654 19.704 237.598 16.752 239.326 13.536C241.102 10.272 242.662 6.6 244.006 2.52L249.19 4.608C247.846 8.688 246.214 12.504 244.294 16.056C242.374 19.608 240.238 22.8 237.886 25.632L233.494 22.392ZM206.998 69.984C205.75 69.984 204.502 69.696 203.254 69.12C202.054 68.544 201.022 67.488 200.158 65.952C199.294 64.416 198.718 62.256 198.43 59.472L203.542 58.464C203.83 62.016 204.838 63.792 206.566 63.792C207.526 63.792 208.246 63.264 208.726 62.208C209.254 61.152 209.638 59.376 209.878 56.88L211.39 42.192H201.022L204.838 19.944H213.334L214.558 8.856H203.974L204.622 2.808H215.278C217.246 2.808 218.662 3.336 219.526 4.392C220.39 5.4 220.726 6.816 220.534 8.64L218.734 25.92H209.59L207.79 36.144H212.398C214.222 36.144 215.542 36.696 216.358 37.8C217.174 38.856 217.486 40.248 217.294 41.976L215.638 57.96C215.206 62.232 214.27 65.28 212.83 67.104C211.39 68.976 209.446 69.936 206.998 69.984Z" fill="#1F2833"/>
<path d="M284.096 6.48L283.448 12.312H262.064L262.712 6.48H270.776L271.352 0.504H276.968L276.392 6.48H284.096ZM306.488 27.864C305.288 28.536 303.992 28.872 302.6 28.872C300.584 28.872 299.216 28.104 298.496 26.568C297.776 25.032 297.584 22.512 297.92 19.008L298.928 9.288H294.464L294.248 11.376C293.912 15.024 293.36 18.264 292.592 21.096C291.872 23.88 290.744 26.616 289.208 29.304L284.312 26.208C285.656 24.192 286.664 21.792 287.336 19.008C288.056 16.224 288.584 13.008 288.92 9.36L289.568 2.808H299.504C303.344 2.808 305.048 4.776 304.616 8.712L303.536 18.576C303.392 20.064 303.368 21.192 303.464 21.96C303.608 22.68 303.968 23.04 304.544 23.04C304.928 23.04 305.216 22.992 305.408 22.896C305.648 22.752 305.84 22.608 305.984 22.464L306.488 27.864ZM263.288 61.92C263.576 63.744 264.176 64.656 265.088 64.656C266.528 64.656 267.632 62.4 268.4 57.888C268.496 57.264 268.592 56.592 268.688 55.872C268.832 55.152 268.952 54.408 269.048 53.64C267.368 55.32 265.544 56.856 263.576 58.248C261.656 59.64 259.568 60.936 257.312 62.136L254.864 57.24C257.648 55.848 260.288 54.216 262.784 52.344C265.28 50.472 267.584 48.336 269.696 45.936C269.696 44.592 269.648 43.344 269.552 42.192C267.968 43.824 266.264 45.336 264.44 46.728C262.664 48.072 260.744 49.344 258.68 50.544L256.088 46.224C258.488 44.832 260.696 43.344 262.712 41.76C264.776 40.128 266.648 38.352 268.328 36.432C268.04 35.76 267.728 35.136 267.392 34.56C265.52 36.048 263.288 37.488 260.696 38.88L258.032 34.56C260.432 33.312 262.424 32.136 264.008 31.032C265.592 29.928 267.008 28.632 268.256 27.144H260.12L260.768 21.312H265.088C264.848 20.208 264.632 19.104 264.44 18C264.296 16.848 264.176 15.816 264.08 14.904L269.048 14.184C269.144 15.336 269.264 16.512 269.408 17.712C269.6 18.912 269.816 20.112 270.056 21.312H274.016C274.496 20.16 274.928 18.984 275.312 17.784C275.744 16.584 276.104 15.384 276.392 14.184L281.288 14.832C281 15.84 280.688 16.896 280.352 18C280.016 19.104 279.608 20.208 279.128 21.312H283.736L283.088 27.144H274.232C273.368 28.44 272.432 29.64 271.424 30.744C272.816 33 273.8 35.664 274.376 38.736C276.2 36.576 277.76 34.224 279.056 31.68L282.872 34.2C280.952 37.848 278.624 41.136 275.888 44.064C277.328 45.792 278.696 47.64 279.992 49.608C281.288 51.528 282.464 53.568 283.52 55.728L279.776 59.328C279.056 57.84 278.288 56.376 277.472 54.936C276.656 53.496 275.792 52.104 274.88 50.76C274.736 52.776 274.496 54.84 274.16 56.952C273.344 61.896 272.192 65.328 270.704 67.248C269.264 69.216 267.224 70.2 264.584 70.2C263.096 70.2 261.824 69.624 260.768 68.472C259.712 67.32 258.968 65.664 258.536 63.504L263.288 61.92ZM281.072 70.128L278.048 64.584C280.304 63.48 282.392 62.112 284.312 60.48C286.232 58.8 287.984 56.928 289.568 54.864C288.464 52.368 287.576 49.704 286.904 46.872C286.28 44.04 285.944 41.088 285.896 38.016H283.592L284.384 31.896H298.208C300.752 31.896 302.36 32.448 303.032 33.552C303.704 34.608 303.8 36.144 303.32 38.16C302.744 40.896 301.832 43.752 300.584 46.728C299.384 49.656 297.872 52.536 296.048 55.368C298.496 59.64 301.4 62.856 304.76 65.016L301.376 70.128C299.744 68.928 298.16 67.488 296.624 65.808C295.136 64.176 293.744 62.352 292.448 60.336C290.864 62.256 289.112 64.056 287.192 65.736C285.32 67.416 283.28 68.88 281.072 70.128ZM291.44 38.016C291.488 39.984 291.656 41.88 291.944 43.704C292.28 45.528 292.712 47.28 293.24 48.96C295.016 45.648 296.432 42 297.488 38.016H291.44Z" fill="#1F2833"/>
<path d="M362.202 25.632L361.482 32.184H322.17L322.89 25.632H339.09L340.098 15.696H320.586L321.306 9.144H340.818L341.754 0.288002H348.378L347.442 9.144H367.458L366.738 15.696H346.722L345.714 25.632H362.202ZM359.538 45.504L357.018 68.616H319.506L322.602 39.24H353.634C355.938 39.24 357.546 39.84 358.458 41.04C359.37 42.192 359.73 43.68 359.538 45.504ZM326.706 62.136H351.114L352.842 45.72H328.434L326.706 62.136Z" fill="#1F2833"/>
<path d="M384.076 71.784C382.012 71.784 380.26 71.28 378.82 70.272C377.428 69.312 376.42 68.016 375.796 66.384C375.172 64.752 374.956 62.952 375.148 60.984C375.388 58.968 375.988 57.144 376.948 55.512C377.908 53.88 379.18 52.584 380.764 51.624C382.396 50.616 384.244 50.112 386.308 50.112C388.42 50.112 390.172 50.616 391.564 51.624C392.956 52.584 393.964 53.88 394.588 55.512C395.26 57.144 395.476 58.968 395.236 60.984C395.044 62.952 394.444 64.752 393.436 66.384C392.476 68.016 391.18 69.312 389.548 70.272C387.964 71.28 386.14 71.784 384.076 71.784ZM384.508 67.608C386.188 67.608 387.604 66.936 388.756 65.592C389.956 64.296 390.652 62.76 390.844 60.984C391.084 59.16 390.724 57.6 389.764 56.304C388.852 54.96 387.556 54.288 385.876 54.288C384.244 54.288 382.828 54.96 381.628 56.304C380.428 57.6 379.732 59.16 379.54 60.984C379.348 62.76 379.708 64.296 380.62 65.592C381.532 66.936 382.828 67.608 384.508 67.608Z" fill="#1F2833"/>
<path d="M20.448 128.984L20.088 132.152C19.464 137.576 18.096 142.376 15.984 146.552C13.872 150.68 10.56 154.232 6.048 157.208L1.224 152.6C5.016 150.44 7.92 147.68 9.936 144.32C11.952 140.96 13.224 136.784 13.752 131.792C10.68 134.336 7.416 136.376 3.96 137.912L0.648 132.656C4.2 131.216 7.344 129.416 10.08 127.256C12.816 125.048 15.096 122.672 16.92 120.128H6.624L9.936 88.808H43.992C46.008 88.808 47.376 89.384 48.096 90.536C48.816 91.64 49.08 92.936 48.888 94.424L46.152 120.128H34.632C35.976 122.672 37.896 125.048 40.392 127.256C42.888 129.416 45.6 131.216 48.528 132.656L45.216 137.912C41.76 136.328 38.664 134.192 35.928 131.504L33.48 156.416H26.928L29.808 128.984H33.624C31.464 126.392 29.664 123.44 28.224 120.128H23.76C21.84 123.344 19.536 126.296 16.848 128.984H20.448ZM14.544 101.624H25.272L25.992 94.856H15.264L14.544 101.624ZM30.888 101.624H42.192L42.912 94.856H31.608L30.888 101.624ZM13.248 114.08H23.904L24.696 106.952H13.968L13.248 114.08ZM29.52 114.08H40.824L41.616 106.952H30.312L29.52 114.08Z" fill="#1F2833"/>
<path d="M111.226 89.096L110.578 95.216H90.3459C89.8659 96.56 89.3379 97.928 88.7619 99.32C88.1859 100.664 87.5379 102.032 86.8179 103.424H101.434C103.594 103.424 105.082 103.976 105.898 105.08C106.762 106.136 107.098 107.528 106.906 109.256L101.938 155.264H60.3939L65.8659 103.424H80.1219C81.6099 100.688 82.8579 97.952 83.8659 95.216H64.5699L65.2179 89.096H111.226ZM67.3779 149.216H72.9219L77.0979 109.472H71.4819L67.3779 149.216ZM81.8499 118.976H87.8259L88.8339 109.472H82.8579L81.8499 118.976ZM90.4179 149.216H96.2499L100.57 109.472H94.5939L90.4179 149.216ZM80.3379 133.664H86.3139L87.3219 124.088H81.3459L80.3379 133.664ZM78.6819 149.216H84.6579L85.7379 138.776H79.7619L78.6819 149.216Z" fill="#1F2833"/>
<path d="M170.036 93.92L169.388 100.184H122.876L123.596 93.92H143.54L144.332 86.504H150.956L150.164 93.92H170.036ZM123.524 122.72L119.708 117.464C125.804 113.48 131.036 108.344 135.404 102.056L140.516 105.8C138.164 109.112 135.572 112.232 132.74 115.16C129.956 118.04 126.884 120.56 123.524 122.72ZM168.452 119.336L163.412 123.512C161.348 120.2 159.044 117.008 156.5 113.936C153.956 110.864 151.676 108.272 149.66 106.16L154.484 102.2C156.74 104.36 159.068 106.904 161.468 109.832C163.916 112.76 166.244 115.928 168.452 119.336ZM166.436 149.936L163.412 156.704C158.9 154.736 154.94 152.528 151.532 150.08C148.172 147.632 145.268 145.04 142.82 142.304C139.556 145.28 135.908 147.92 131.876 150.224C127.892 152.528 123.572 154.52 118.916 156.2L116.18 149.72C120.836 147.992 125.012 146.096 128.708 144.032C132.452 141.92 135.788 139.568 138.716 136.976C136.7 133.952 135.068 130.856 133.82 127.688C132.62 124.52 131.684 121.424 131.012 118.4L137.132 116.528C137.804 119.36 138.668 122.072 139.724 124.664C140.78 127.208 142.076 129.632 143.612 131.936C147.26 127.568 150.14 122.456 152.252 116.6L158.444 119.048C157.1 122.552 155.516 125.84 153.692 128.912C151.916 131.936 149.924 134.72 147.716 137.264C150.068 139.856 152.78 142.208 155.852 144.32C158.972 146.432 162.5 148.304 166.436 149.936Z" fill="#1F2833"/>
<path d="M185.502 135.032L194.934 96.152H182.478L183.198 89.672H228.918L228.198 96.152H201.27L198.822 106.304H213.006C215.118 106.304 216.678 106.904 217.686 108.104C218.742 109.304 219.078 110.816 218.694 112.64L210.63 147.992H223.662L222.942 154.472H175.854L176.574 147.992H204.222L207.174 135.032H185.502ZM193.422 128.552H208.686L212.286 112.784H197.238L193.422 128.552Z" fill="#1F2833"/>
<path d="M255.328 99.32L249.64 102.56C248.632 100.208 247.504 97.952 246.256 95.792C245.056 93.632 243.76 91.64 242.368 89.816L248.056 86.576C249.448 88.592 250.744 90.656 251.944 92.768C253.192 94.88 254.32 97.064 255.328 99.32ZM285.64 113.864C284.632 114.248 283.72 114.512 282.904 114.656C282.136 114.8 281.128 114.872 279.88 114.872C277.576 114.872 275.944 114.104 274.984 112.568C274.072 111.032 273.784 108.512 274.12 105.008L275.128 95.288H266.56L266.344 97.376C266.008 101.024 265.24 104.336 264.04 107.312C262.888 110.288 260.752 113.12 257.632 115.808L254.104 110.912C255.448 109.664 256.528 108.392 257.344 107.096C258.208 105.752 258.88 104.168 259.36 102.344C259.888 100.472 260.272 98.144 260.512 95.36L261.16 88.808H276.136C279.976 88.808 281.68 90.776 281.248 94.712L280.168 104.576C280.024 106.064 280.048 107.192 280.24 107.96C280.432 108.68 280.96 109.04 281.824 109.04C282.352 109.04 282.88 108.992 283.408 108.896C283.984 108.752 284.656 108.512 285.424 108.176L285.64 113.864ZM239.056 151.304L235.744 146.048C238.048 144.704 240.28 143.288 242.44 141.8L245.32 114.296H238.84L239.488 107.816H246.04C248.056 107.816 249.52 108.416 250.432 109.616C251.392 110.816 251.752 112.28 251.512 114.008L249.136 136.832C250.816 135.44 252.448 134 254.032 132.512L257.92 137.336C254.896 139.976 251.8 142.472 248.632 144.824C245.512 147.176 242.32 149.336 239.056 151.304ZM252.016 156.128L248.992 150.584C251.536 149.48 254.08 148.112 256.624 146.48C259.168 144.848 261.568 142.976 263.824 140.864C260.752 135.872 258.712 130.256 257.704 124.016H254.752L255.4 117.896H276.28C278.824 117.896 280.432 118.64 281.104 120.128C281.824 121.568 281.848 123.248 281.176 125.168C278.92 131.168 275.728 136.568 271.6 141.368C273.04 143 274.672 144.584 276.496 146.12C278.368 147.656 280.504 149.12 282.904 150.512L279.376 156.128C274.576 153.104 270.568 149.648 267.352 145.76C262.936 149.888 257.824 153.344 252.016 156.128ZM263.68 124.016C264.016 126.08 264.52 128.144 265.192 130.208C265.912 132.272 266.872 134.312 268.072 136.328C269.56 134.504 270.904 132.56 272.104 130.496C273.304 128.432 274.288 126.272 275.056 124.016H263.68Z" fill="#1F2833"/>
<path d="M322.13 156.2L326.09 118.4H312.554L313.274 111.632H326.81L329.474 86.504H336.098L333.434 111.632H346.106L345.386 118.4H332.714L328.754 156.2H322.13ZM314.066 99.248L308.378 102.56C307.322 100.208 306.146 97.952 304.85 95.792C303.554 93.632 302.21 91.664 300.818 89.888L306.434 86.576C307.826 88.544 309.17 90.584 310.466 92.696C311.762 94.808 312.962 96.992 314.066 99.248ZM298.154 154.184L294.77 148.928C296.546 147.824 298.25 146.672 299.882 145.472L303.05 115.736H297.002L297.65 109.256H303.698C305.762 109.256 307.25 109.856 308.162 111.056C309.074 112.256 309.41 113.72 309.17 115.448L306.65 140.072C308.234 138.632 309.77 137.168 311.258 135.68L315.218 140.36C312.53 143 309.746 145.496 306.866 147.848C304.034 150.152 301.13 152.264 298.154 154.184Z" fill="#1F2833"/>
<path d="M373.812 88.808L370.14 124.592C369.708 129.008 369.036 133.04 368.124 136.688C367.212 140.336 365.844 143.792 364.02 147.056C362.196 150.272 359.628 153.512 356.316 156.776L352.14 152.096C354.924 149.552 357.108 146.936 358.692 144.248C360.324 141.512 361.548 138.536 362.364 135.32C363.228 132.104 363.876 128.504 364.308 124.52L368.052 88.808H373.812ZM381.876 157.784L386.628 111.344H381.444L377.484 147.272H371.724L376.26 105.44H387.204L388.14 96.44H376.332L376.908 90.824H407.22L406.644 96.44H394.332L393.396 105.44H399.372C400.812 105.44 401.94 105.752 402.756 106.376C403.572 106.952 404.148 107.672 404.484 108.536C404.82 109.4 404.94 110.24 404.844 111.056L401.964 138.416C401.628 141.488 400.836 143.672 399.588 144.968C398.34 146.264 396.9 146.912 395.268 146.912C393.828 146.912 392.628 146.48 391.668 145.616C390.756 144.704 390.084 143.576 389.652 142.232L388.068 157.784H381.876ZM353.796 133.376L357.9 94.064H363.588L359.484 133.376H353.796ZM393.396 138.92C393.828 140.504 394.332 141.296 394.908 141.296C395.196 141.296 395.436 141.056 395.628 140.576C395.82 140.096 395.988 139.208 396.132 137.912L398.796 111.344H392.82L389.868 140L393.396 138.92Z" fill="#1F2833"/>
<path d="M422.326 157.784C420.262 157.784 418.51 157.28 417.07 156.272C415.678 155.312 414.67 154.016 414.046 152.384C413.422 150.752 413.206 148.952 413.398 146.984C413.638 144.968 414.238 143.144 415.198 141.512C416.158 139.88 417.43 138.584 419.014 137.624C420.646 136.616 422.494 136.112 424.558 136.112C426.67 136.112 428.422 136.616 429.814 137.624C431.206 138.584 432.214 139.88 432.838 141.512C433.51 143.144 433.726 144.968 433.486 146.984C433.294 148.952 432.694 150.752 431.686 152.384C430.726 154.016 429.43 155.312 427.798 156.272C426.214 157.28 424.39 157.784 422.326 157.784ZM422.758 153.608C424.438 153.608 425.854 152.936 427.006 151.592C428.206 150.296 428.902 148.76 429.094 146.984C429.334 145.16 428.974 143.6 428.014 142.304C427.102 140.96 425.806 140.288 424.126 140.288C422.494 140.288 421.078 140.96 419.878 142.304C418.678 143.6 417.982 145.16 417.79 146.984C417.598 148.76 417.958 150.296 418.87 151.592C419.782 152.936 421.078 153.608 422.758 153.608Z" fill="#1F2833"/>
<defs>
<linearGradient id="paint0_linear_675_2537" x1="63.5" y1="32.5" x2="65" y2="42" gradientUnits="userSpaceOnUse">
<stop stop-color="#67A2EB"/>
<stop offset="1" stop-color="#4186E7"/>
</linearGradient>
</defs>
</svg>
