<svg width="104" height="30" viewBox="0 0 104 30" fill="none" xmlns="http://www.w3.org/2000/svg">
<rect width="104" height="30" rx="8" fill="url(#paint0_linear_694_2797)"/>
<circle cx="15" cy="15" r="3" fill="white"/>
<path d="M27.4874 19.662V21.454C28.8874 21.062 30.2874 20.432 31.4914 19.578C32.5974 20.348 33.8854 20.936 35.3274 21.454V19.662C34.5854 19.368 33.6894 19.032 32.7934 18.5C34.0114 17.31 34.8794 15.84 35.1034 14.16H27.8514C28.3414 15.98 29.1114 17.352 30.1334 18.416C29.2794 18.948 28.3694 19.354 27.4874 19.662ZM22.5874 14.538H24.2674V21.286L27.1794 20.166V18.08L26.1434 18.472V12.676H22.5874V14.538ZM23.4834 8.686L24.4494 11.724H26.3534L25.3874 8.686H23.4834ZM27.4314 13.88H29.3354C29.9794 12.886 30.1474 11.822 30.1754 10.632H32.5834V13.67H35.4394V11.99H34.2634V8.924H28.5094V10.058C28.5094 11.472 28.3694 12.802 27.4314 13.88ZM30.1194 15.658H32.8914C32.5274 16.33 32.0234 16.932 31.4354 17.45C30.9314 16.974 30.4834 16.386 30.1194 15.658Z" fill="white"/>
<path d="M44.5534 21.426H46.4154V14.986H49.6074V13.124H46.4154V8.546H44.5394V13.124H41.2214V14.986H44.5534V21.426ZM36.5174 14.538H37.9874V21.286L41.5994 20.208V18.122L39.8634 18.64V12.676H36.5174V14.538ZM37.4834 8.686L38.4494 11.724H40.3534L39.3874 8.686H37.4834Z" fill="white"/>
<path d="M50.7274 20.572H63.3274V18.696H57.9934V11.262H62.6134V9.386H51.4414V11.262H56.0614V18.696H50.7274V20.572Z" fill="white"/>
<path d="M76.7814 8.924H70.4534V13.53H76.7814V8.924ZM64.5034 20.74H65.8894C66.2254 18.794 66.3934 16.61 66.3934 14.202H65.0774C65.0774 16.47 64.8814 18.654 64.5034 20.74ZM64.6574 13.558H66.7714V21.286H68.4654V16.652L69.8934 17.534V15.532L68.4654 14.65V13.558H70.0614V11.85H68.4654V10.478C68.9134 10.422 69.3474 10.352 69.7954 10.282V8.56C68.0174 8.826 66.3654 8.966 64.8394 8.966V10.674C65.4554 10.674 66.0714 10.66 66.6734 10.632V11.85H64.6574V13.558ZM69.7394 21.146H77.4954V19.592H74.5274V18.472H76.7954V17.016H74.5274V15.924H77.1454V14.37H70.0894V15.924H72.7074V17.016H70.4394V18.472H72.7074V19.592H69.7394V21.146ZM72.2594 11.99V10.464H74.9754V11.99H72.2594Z" fill="white"/>
<path d="M83.7674 19.942H85.4754V13.74H86.5254V21.286H88.2894V13.74H89.3674V19.942H91.0754V11.948H88.3034V10.674H91.4114V8.882H83.4454V10.674H86.5114V11.948H83.7674V19.942ZM78.7974 17.716H80.4354V9.89H78.7974V17.716ZM79.6374 21.286H81.6394C82.5914 19.102 82.9694 17.072 82.9694 14.58V8.686H81.2334V14.58C81.2334 17.086 80.7154 19.102 79.6374 21.286Z" fill="white"/>
<defs>
<linearGradient id="paint0_linear_694_2797" x1="0" y1="0" x2="103.549" y2="31.4841" gradientUnits="userSpaceOnUse">
<stop stop-color="#67A2EB"/>
<stop offset="1" stop-color="#4186E7"/>
</linearGradient>
</defs>
</svg>
