<svg width="20" height="20" viewBox="0 0 20 20" fill="none" xmlns="http://www.w3.org/2000/svg">
<path d="M10 18.3333C13.4311 18.3333 16.2499 15.6143 16.2499 12.1242C16.2499 11.2674 16.2064 10.349 15.7315 8.9215C15.2565 7.49409 15.1609 7.30984 14.6587 6.4283C14.4442 8.22725 13.2962 8.977 13.0046 9.20109C13.0046 8.96796 12.3102 6.38996 11.2573 4.84746C10.2237 3.33334 8.81808 2.33997 7.99388 1.66667C7.99388 2.94574 7.63412 4.84746 7.11892 5.81642C6.60371 6.78538 6.50696 6.82067 5.86342 7.54176C5.21992 8.26284 4.92454 8.48555 4.38642 9.36046C3.84832 10.2354 3.75 11.4008 3.75 12.2575C3.75 15.7476 6.56888 18.3333 10 18.3333Z" fill="url(#paint0_linear_694_2816)"/>
<path fill-rule="evenodd" clip-rule="evenodd" d="M15.7315 8.9215C15.407 7.94618 15.2595 7.55125 15.0385 7.11771C14.936 6.91675 14.8178 6.7075 14.6587 6.4283C14.6263 6.70041 14.5724 6.94852 14.5035 7.17443C14.2528 7.9955 13.8019 8.52341 13.448 8.84514C13.2945 8.9847 13.1593 9.08546 13.0666 9.15453C13.043 9.17205 13.0223 9.18753 13.0046 9.20109C13.0046 9.1444 12.9636 8.94909 12.8863 8.66374C12.6457 7.77551 12.0542 6.01491 11.2573 4.84746C10.4079 3.60307 9.3071 2.71043 8.48433 2.05811C8.45303 2.0333 8.42212 2.00883 8.39166 1.9847C8.24853 1.87136 8.11493 1.76556 7.99388 1.66667C7.99388 1.86135 7.98554 2.07045 7.96959 2.28848C7.88077 3.50302 7.55571 4.99494 7.11892 5.81642C6.68128 6.63949 6.54558 6.78888 6.12021 7.25715C6.04481 7.34016 5.96031 7.43318 5.86342 7.54176C5.70813 7.71577 5.57311 7.86076 5.45006 7.99289C5.06322 8.40831 4.79468 8.69668 4.38642 9.36046C3.84832 10.2354 3.75 11.4008 3.75 12.2575C3.75 15.7476 6.56888 18.3333 10 18.3333C13.4311 18.3333 16.2499 15.6143 16.2499 12.1242C16.2499 11.2674 16.2064 10.349 15.7315 8.9215ZM6.23646 7.87468C6.06877 8.06259 5.92766 8.21419 5.80239 8.34876C5.42622 8.7529 5.19301 9.00345 4.81231 9.62241C4.35173 10.3713 4.25 11.4149 4.25 12.2575C4.25 15.45 6.82311 17.8333 10 17.8333C13.1624 17.8333 15.7499 15.3308 15.7499 12.1242C15.7499 11.3028 15.7101 10.4411 15.257 9.07935C15.0517 8.46207 14.922 8.09237 14.803 7.80254C14.3563 8.81789 13.6503 9.34331 13.3707 9.55144C13.347 9.56905 13.3264 9.58439 13.3093 9.59756C13.1583 9.71359 12.9545 9.73377 12.7836 9.6496C12.6128 9.56543 12.5046 9.39153 12.5046 9.20109C12.5046 9.21243 12.505 9.21897 12.5047 9.219C12.504 9.21907 12.5004 9.19054 12.4844 9.11761C12.4656 9.03226 12.4366 8.91491 12.3973 8.77114C12.319 8.48418 12.2028 8.10334 12.0542 7.68141C11.7541 6.82938 11.3344 5.8472 10.8444 5.12936C10.1214 4.07026 9.2105 3.28272 8.43855 2.66181C8.39495 3.08646 8.32694 3.52926 8.23951 3.9578C8.0813 4.73317 7.85088 5.50484 7.56039 6.05116C7.29928 6.54223 7.13074 6.82283 6.93583 7.0766C6.80443 7.24768 6.65833 7.40853 6.47526 7.61008C6.40205 7.69068 6.32293 7.77779 6.23647 7.87467" fill="url(#paint1_linear_694_2816)" style="mix-blend-mode:soft-light"/>
<defs>
<linearGradient id="paint0_linear_694_2816" x1="8.52709" y1="1.81866" x2="15.5463" y2="11.3977" gradientUnits="userSpaceOnUse">
<stop stop-color="#FF965B"/>
<stop offset="1" stop-color="#FFD850"/>
</linearGradient>
<linearGradient id="paint1_linear_694_2816" x1="16.0697" y1="10.2028" x2="4.00154" y2="10.2028" gradientUnits="userSpaceOnUse">
<stop stop-color="white"/>
<stop offset="1" stop-color="white" stop-opacity="0"/>
</linearGradient>
</defs>
</svg>
