<svg width="24" height="16" viewBox="0 0 24 16" fill="none" xmlns="http://www.w3.org/2000/svg">
<g clip-path="url(#clip0_373_4389)">
<path d="M14.2392 0.19104C14.9919 0.19104 15.594 0.19104 16.1585 0.19104C17.3251 3.87912 19.5079 6.43821 23.4218 7.37905C23.4218 7.79299 23.4218 8.24461 23.4218 8.73383C19.6208 9.59943 17.3628 12.1208 16.1585 15.809C15.594 15.809 15.0295 15.809 14.2392 15.809C14.8413 12.8359 16.4972 10.6908 18.8681 8.84674C12.8091 8.84674 6.71249 8.84674 0.578247 8.84674C0.578247 8.28225 0.578247 7.86827 0.578247 7.26613C6.71249 7.26613 12.8091 7.26613 18.9057 7.26613C18.9434 7.19086 18.9434 7.11562 18.981 7.04034C16.5725 5.38446 14.879 3.23935 14.2392 0.19104Z" fill="#868B97"/>
</g>
<defs>
<clipPath id="clip0_373_4389">
<rect width="24" height="16" fill="white"/>
</clipPath>
</defs>
</svg>
