<svg width="20" height="20" viewBox="0 0 20 20" fill="none" xmlns="http://www.w3.org/2000/svg">
<path d="M7.22221 1.66667C5.55554 1.66667 5 2.98185 5 4.60417C5 7.54167 8.25 10.2121 10 10.8333C11.75 10.2121 15 7.54167 15 4.60417C15 2.98185 14.2965 1.66667 12.7778 1.66667C11.8477 1.66667 10.4977 2.9488 10 3.70371C9.50233 2.9488 8.15229 1.66667 7.22221 1.66667Z" stroke="#5B646F" stroke-width="1.25" stroke-linecap="round" stroke-linejoin="round"/>
<path d="M10 10.8333C9.16667 11.2879 7.91667 12.2917 7.91667 13.75C7.91667 15.2083 12.0833 14.7917 12.0833 16.25C12.0833 17.7083 7.5 18.3333 7.5 18.3333" stroke="#5B646F" stroke-width="1.25" stroke-linecap="round" stroke-linejoin="round"/>
</svg>
