<svg width="60" height="40" viewBox="0 0 60 40" fill="none" xmlns="http://www.w3.org/2000/svg">
<path fill-rule="evenodd" clip-rule="evenodd" d="M7.15228 20C7.15228 12.8175 12.9735 7 20.1523 7C23.7453 7 26.991 8.45139 29.346 10.8063C31.5527 13.0131 32.966 16.002 33.1352 19.326L32.1076 21.3812L29.827 25.9405C27.6025 30.2713 23.1404 33 18.2637 33H7.15228V20ZM25.7823 37.4494C23.4485 38.4554 20.8975 39 18.2637 39H4.65228C2.71928 39 1.15228 37.433 1.15228 35.5V20C1.15228 9.50254 9.66104 1 20.1523 1C25.3992 1 30.1535 3.12861 33.5886 6.56368C34.9978 7.97291 36.1872 9.60417 37.0999 11.4004L39.0233 7.555C40.3133 4.975 43.9933 4.975 45.2833 7.555L58.4733 33.935C59.6383 36.26 57.9433 39 55.3433 39H36.7133L39.7133 33H51.2983L45.5083 21.415L44.1833 18.775L42.1533 14.71L40.9333 17.15L35.4708 28.075C35.4479 28.1208 35.424 28.1672 35.3993 28.2141L35.2578 28.4971C33.4207 32.1714 30.4885 35.0732 26.9715 36.8872C26.5182 37.162 26.1142 37.3567 25.7823 37.4494Z" fill="#132B45"/>
</svg>
