<svg width="107" height="48" viewBox="0 0 107 48" fill="none" xmlns="http://www.w3.org/2000/svg">
<path d="M46.5 43.4701L42 35.6761H24L24.561 34.7011C26.997 30.4801 26.997 25.2811 24.561 21.063L15.561 36.6511L19.497 43.4701H46.5Z" fill="url(#paint0_linear_538_1853)"/>
<path fill-rule="evenodd" clip-rule="evenodd" d="M33 20.1L24.561 34.7242C26.997 30.5 26.997 25.297 24.561 21.0758L23.436 19.1242L9.375 43.5H1.5L24 4.5L33 20.1Z" fill="#132B45"/>
<path d="M33.753 33.3331C35.7412 33.3331 37.353 31.7213 37.353 29.7331C37.353 27.7448 35.7412 26.1331 33.753 26.1331C31.7648 26.1331 30.153 27.7448 30.153 29.7331C30.153 31.7213 31.7648 33.3331 33.753 33.3331Z" fill="#FFC95B"/>
<path d="M74.384 33L67.952 24.936C69.744 24.648 71.184 23.816 72.24 22.408C73.296 21 73.84 19.368 73.84 17.48C73.84 14.728 72.848 12.584 70.928 11.016C70.288 10.504 69.488 10.12 68.592 9.864C67.696 9.608 66.896 9.448 66.224 9.384C65.552 9.352 64.688 9.32 63.632 9.32H56.144V33H61.936V25.352H62L67.472 33H74.384ZM68.048 17.832C68.048 18.984 67.664 19.848 66.96 20.392C66.256 20.968 65.296 21.224 64.08 21.224H61.936V14.632H64.144C65.264 14.632 66.192 14.92 66.928 15.432C67.664 15.944 68.048 16.744 68.048 17.832ZM95.1303 24.104C95.1303 21.416 94.2023 19.144 92.3783 17.352C90.5543 15.56 88.2823 14.664 85.5623 14.664C82.8103 14.664 80.5383 15.56 78.7143 17.352C76.8903 19.144 75.9943 21.416 75.9943 24.104C75.9943 26.824 76.8903 29.064 78.7143 30.856C80.5383 32.648 82.8103 33.544 85.5623 33.544C88.2823 33.544 90.5543 32.648 92.3783 30.856C94.2023 29.064 95.1303 26.824 95.1303 24.104ZM89.8183 24.104C89.8183 25.32 89.4023 26.376 88.6023 27.272C87.7703 28.168 86.7783 28.584 85.5623 28.584C84.3463 28.584 83.3223 28.168 82.5223 27.272C81.6903 26.376 81.3063 25.32 81.3063 24.104C81.3063 22.888 81.6903 21.864 82.5223 20.968C83.3223 20.072 84.3463 19.624 85.5623 19.624C86.7783 19.624 87.7703 20.072 88.6023 20.968C89.4023 21.864 89.8183 22.888 89.8183 24.104ZM104.027 33V27.56H98.4908V33H104.027Z" fill="#132B45"/>
<path d="M56.5593 43V37.9091H59.7163V38.5703H57.3274V40.1214H59.4901V40.7802H57.3274V43H56.5593ZM60.8009 43V37.9091H62.6155C63.0099 37.9091 63.3372 37.977 63.5974 38.1129C63.8592 38.2488 64.0548 38.4369 64.184 38.6772C64.3133 38.9158 64.3779 39.1918 64.3779 39.505C64.3779 39.8165 64.3125 40.0908 64.1815 40.3278C64.0523 40.5631 63.8567 40.7462 63.5949 40.8771C63.3347 41.008 63.0074 41.0735 62.613 41.0735H61.2384V40.4123H62.5434C62.792 40.4123 62.9942 40.3767 63.1499 40.3054C63.3074 40.2341 63.4226 40.1306 63.4955 39.9947C63.5684 39.8588 63.6048 39.6955 63.6048 39.505C63.6048 39.3127 63.5676 39.1462 63.493 39.0053C63.4201 38.8645 63.3049 38.7567 63.1475 38.6822C62.9917 38.6059 62.787 38.5678 62.5335 38.5678H61.569V43H60.8009ZM63.314 40.7031L64.5718 43H63.6968L62.4639 40.7031H63.314ZM65.4526 43V37.9091H68.6443V38.5703H66.2207V40.1214H68.4778V40.7802H66.2207V42.3388H68.6742V43H65.4526ZM69.8104 43V37.9091H73.0021V38.5703H70.5785V40.1214H72.8356V40.7802H70.5785V42.3388H73.0319V43H69.8104ZM76.1607 37.9091H77.0928L78.7136 41.8665H78.7732L80.394 37.9091H81.3262V43H80.5953V39.3161H80.5481L79.0467 42.9925H78.4401L76.9387 39.3136H76.8915V43H76.1607V37.9091ZM82.1901 37.9091H83.0627L84.3926 40.2234H84.4472L85.7771 37.9091H86.6497L84.8027 41.0014V43H84.0371V41.0014L82.1901 37.9091ZM90.2915 39.2464C90.265 39.0111 90.1556 38.8288 89.9634 38.6996C89.7712 38.5687 89.5292 38.5032 89.2375 38.5032C89.0287 38.5032 88.8481 38.5363 88.6956 38.6026C88.5432 38.6673 88.4247 38.7567 88.3402 38.8711C88.2573 38.9838 88.2159 39.1122 88.2159 39.2564C88.2159 39.3774 88.2441 39.4818 88.3004 39.5696C88.3584 39.6574 88.4338 39.7312 88.5266 39.7908C88.6211 39.8488 88.7222 39.8977 88.8299 39.9375C88.9376 39.9756 89.0412 40.0071 89.1406 40.032L89.6378 40.1612C89.8002 40.201 89.9667 40.2549 90.1374 40.3228C90.3081 40.3907 90.4664 40.4802 90.6122 40.5913C90.758 40.7023 90.8757 40.8398 90.9652 41.0039C91.0563 41.168 91.1019 41.3643 91.1019 41.593C91.1019 41.8814 91.0273 42.1374 90.8782 42.3612C90.7307 42.5849 90.5161 42.7614 90.2343 42.8906C89.9543 43.0199 89.6154 43.0845 89.2177 43.0845C88.8365 43.0845 88.5067 43.024 88.2283 42.9031C87.9499 42.7821 87.732 42.6106 87.5745 42.3885C87.4171 42.1648 87.3301 41.8996 87.3135 41.593H88.0841C88.0991 41.777 88.1587 41.9303 88.2631 42.0529C88.3692 42.1739 88.5042 42.2642 88.6683 42.3239C88.834 42.3819 89.0155 42.4109 89.2127 42.4109C89.4298 42.4109 89.6228 42.3769 89.7919 42.3089C89.9626 42.2393 90.0968 42.1432 90.1946 42.0206C90.2924 41.8963 90.3412 41.7513 90.3412 41.5856C90.3412 41.4348 90.2982 41.3113 90.212 41.2152C90.1275 41.1191 90.0123 41.0395 89.8665 40.9766C89.7223 40.9136 89.559 40.8581 89.3768 40.81L88.7752 40.646C88.3675 40.5349 88.0444 40.3717 87.8057 40.1562C87.5687 39.9408 87.4503 39.6558 87.4503 39.3011C87.4503 39.0078 87.5298 38.7518 87.6889 38.533C87.848 38.3143 88.0634 38.1444 88.3352 38.0234C88.607 37.9008 88.9136 37.8395 89.2549 37.8395C89.5996 37.8395 89.9037 37.9 90.1672 38.021C90.4324 38.1419 90.6412 38.3085 90.7937 38.5206C90.9461 38.7311 91.0257 38.973 91.0323 39.2464H90.2915ZM92.1598 43V37.9091H95.3515V38.5703H92.9279V40.1214H95.185V40.7802H92.9279V42.3388H95.3814V43H92.1598ZM96.5175 43V37.9091H97.2857V42.3388H99.5925V43H96.5175ZM100.609 43V37.9091H103.766V38.5703H101.377V40.1214H103.539V40.7802H101.377V43H100.609Z" fill="#132B45" fill-opacity="0.85"/>
<defs>
<linearGradient id="paint0_linear_538_1853" x1="24.5" y1="43.5" x2="24.4096" y2="21" gradientUnits="userSpaceOnUse">
<stop offset="0.15625" stop-color="#132B45"/>
<stop offset="1" stop-color="#0C1B2C"/>
</linearGradient>
</defs>
</svg>
