<svg width="20" height="20" viewBox="0 0 20 20" fill="none" xmlns="http://www.w3.org/2000/svg">
<path d="M17.0837 3.33333H2.91699C2.22664 3.33333 1.66699 3.89298 1.66699 4.58333V15.4167C1.66699 16.107 2.22664 16.6667 2.91699 16.6667H17.0837C17.774 16.6667 18.3337 16.107 18.3337 15.4167V4.58333C18.3337 3.89298 17.774 3.33333 17.0837 3.33333Z" stroke="#5B646F" stroke-linejoin="round"/>
<path d="M1.66699 4.58333C1.66699 3.89298 2.22664 3.33333 2.91699 3.33333H17.0837C17.774 3.33333 18.3337 3.89298 18.3337 4.58333V8.33333H1.66699V4.58333Z" stroke="#5B646F"/>
<path d="M3.33333 5.83333C3.33333 5.3731 3.70643 5 4.16667 5C4.6269 5 5 5.3731 5 5.83333C5 6.29357 4.6269 6.66667 4.16667 6.66667C3.70643 6.66667 3.33333 6.29357 3.33333 5.83333Z" fill="#5B646F"/>
<path d="M5.83333 5.83333C5.83333 5.3731 6.20643 5 6.66667 5C7.1269 5 7.5 5.3731 7.5 5.83333C7.5 6.29357 7.1269 6.66667 6.66667 6.66667C6.20643 6.66667 5.83333 6.29357 5.83333 5.83333Z" fill="#5B646F"/>
</svg>
