<svg width="56" height="56" viewBox="0 0 56 56" fill="none" xmlns="http://www.w3.org/2000/svg">
<path fill-rule="evenodd" clip-rule="evenodd" d="M24.9605 19.5857L23.8939 17.7383C22.5144 15.349 19.0657 15.349 17.6862 17.7383L6.08561 37.8311C4.70613 40.2204 6.43047 43.2071 9.18944 43.2071H15.3879C14.0385 41.563 13.6618 39.1556 14.875 37.0542L24.9605 19.5857ZM16.458 41.5521C16.9084 42.3322 17.6469 42.9459 18.566 43.2071H18.5656C17.6467 42.9458 16.9083 42.3321 16.458 41.5521Z" fill="#027AFF" fill-opacity="0.5"/>
<path d="M30.037 14.448C31.4164 12.0587 34.8651 12.0587 36.2446 14.448L49.8239 37.968C51.2034 40.3573 49.479 43.344 46.7201 43.344H19.5615C16.8026 43.344 15.0782 40.3573 16.4577 37.968L30.037 14.448Z" fill="#027AFF"/>
</svg>
